# xmcd
# 
# Track frame offsets:
#     150
#     15390
#     32856
#     54398
#     83600
#     102111
#     113588
#     141465
#     159138
#     177852
#     195289
#     220700
#     243991
#     263298
#     287869
#     311920
# 
# Disc length: 4456
# 
# Revision: 2
# Processed by: cddbd v1.5.2PL0 Copyright (c) Steve Scherf et al.
# Submitted via: BonkEnc v1.0.15
# 
DISCID=c7116610
DTITLE=Truman Capote - Kaltblütig CD 2
DYEAR=2002
DGENRE=Krimi
TTITLE0=Kaltblütig 01
TTITLE1=Kaltblütig 02
TTITLE2=Kaltblütig 03
TTITLE3=Kaltblütig 04
TTITLE4=Kaltblütig 05
TTITLE5=Kaltblütig 06
TTITLE6=Kaltblütig 07
TTITLE7=Kaltblütig 08
TTITLE8=Kaltblütig 09
TTITLE9=Kaltblütig 10
TTITLE10=Kaltblütig 11
TTITLE11=Kaltblütig 12
TTITLE12=Kaltblütig 13
TTITLE13=Kaltblütig 14
TTITLE14=Kaltblütig 15
TTITLE15=Kaltblütig 16
EXTD=YEAR: 2002
EXTT0=
EXTT1=
EXTT2=
EXTT3=
EXTT4=
EXTT5=
EXTT6=
EXTT7=
EXTT8=
EXTT9=
EXTT10=
EXTT11=
EXTT12=
EXTT13=
EXTT14=
EXTT15=
PLAYORDER=
